<svg version="1.1" id="Layer_1" xmlns="http://www.w3.org/2000/svg" xmlns:xlink="http://www.w3.org/1999/xlink" x="0px" y="0px"
	 width="100%" viewBox="0 0 1611 1090" enable-background="new 0 0 1611 1090" xml:space="preserve">
<path fill="#000000" opacity="1.000000" stroke="none" 
	d="
M1111.000000,1091.000000 
	C740.666687,1091.000000 370.833344,1091.000000 1.000000,1091.000000 
	C1.000000,727.666687 1.000000,364.333344 1.000000,1.000000 
	C538.000000,1.000000 1075.000000,1.000000 1612.000000,1.000000 
	C1612.000000,364.333344 1612.000000,727.666687 1612.000000,1091.000000 
	C1445.166626,1091.000000 1278.333374,1091.000000 1111.000000,1091.000000 
M979.500000,835.000000 
	C1099.994141,835.000000 1220.488281,835.000916 1340.982422,834.998169 
	C1351.045532,834.997986 1355.988281,830.113281 1355.989014,819.991272 
	C1356.002686,637.333191 1356.002197,454.675140 1355.990234,272.017090 
	C1355.989624,261.895172 1351.101440,257.000580 1341.171265,257.000549 
	C984.354736,256.999969 627.538208,256.999908 270.721710,257.000671 
	C260.458618,257.000671 257.000488,260.481567 257.000427,270.806580 
	C256.999786,436.465424 256.999969,602.124268 257.000000,767.783142 
	C257.000000,786.115601 256.957733,804.448303 257.059296,822.780212 
	C257.070679,824.835632 257.508850,827.080322 258.418457,828.903259 
	C261.108246,834.293579 266.056396,835.042786 271.533325,835.041687 
	C507.188873,834.993347 742.844421,835.000000 979.500000,835.000000 
z"/>
<path fill="#1E1E1E" opacity="1.000000" stroke="none" 
	d="
M979.000000,835.000000 
	C742.844421,835.000000 507.188873,834.993347 271.533325,835.041687 
	C266.056396,835.042786 261.108246,834.293579 258.418457,828.903259 
	C257.508850,827.080322 257.070679,824.835632 257.059296,822.780212 
	C256.957733,804.448303 257.000000,786.115601 257.000000,767.783142 
	C256.999969,602.124268 256.999786,436.465424 257.000427,270.806580 
	C257.000488,260.481567 260.458618,257.000671 270.721710,257.000671 
	C627.538208,256.999908 984.354736,256.999969 1341.171265,257.000549 
	C1351.101440,257.000580 1355.989624,261.895172 1355.990234,272.017090 
	C1356.002197,454.675140 1356.002686,637.333191 1355.989014,819.991272 
	C1355.988281,830.113281 1351.045532,834.997986 1340.982422,834.998169 
	C1220.488281,835.000916 1099.994141,835.000000 979.000000,835.000000 
M652.482117,508.824738 
	C637.852417,505.526215 624.550049,510.808441 616.892395,523.591187 
	C609.256958,536.336914 608.865112,549.868835 614.971130,563.230225 
	C624.911255,584.981750 651.549805,588.889526 667.719299,571.267456 
	C667.987427,570.975281 668.422424,570.836182 669.391602,570.264954 
	C669.391602,573.861206 669.391602,576.919495 669.391602,579.912964 
	C678.153564,579.912964 686.407837,579.912964 694.821533,579.912964 
	C694.821533,540.762939 694.821533,501.869263 694.821533,462.736023 
	C686.221191,462.736023 677.801819,462.736023 668.804810,462.736023 
	C668.804810,481.429108 668.804810,499.903809 668.804810,517.119263 
	C663.672974,514.429932 658.487000,511.712311 652.482117,508.824738 
M497.962982,496.418488 
	C498.711945,496.195221 499.893433,496.197144 500.144592,495.714722 
	C503.579926,489.116638 506.886780,482.451630 510.188751,475.875702 
	C491.274475,461.346130 449.999359,458.692413 426.536713,486.417847 
	C406.624237,509.948090 408.977356,547.019165 431.804443,566.629517 
	C453.378845,585.163696 495.807373,587.693848 510.144531,571.146912 
	C506.641876,564.315796 503.106689,557.421265 499.636200,550.652893 
	C494.874420,552.459595 490.648376,554.625000 486.163147,555.609741 
	C481.507629,556.631958 476.576385,557.027344 471.809113,556.797485 
	C455.289246,556.000793 442.878174,544.503784 441.046021,528.782593 
	C439.024231,511.434113 447.556030,496.853333 462.960510,492.329620 
	C474.787292,488.856537 486.344940,490.321686 497.962982,496.418488 
M874.709351,495.073578 
	C871.004761,479.092224 860.924316,469.390015 844.395020,468.068115 
	C830.163391,466.929932 815.803345,467.395264 801.499878,467.161652 
	C799.571411,467.130157 797.642029,467.157349 795.605225,467.157349 
	C795.605225,505.162811 795.605225,542.509033 795.605225,579.974243 
	C804.191040,579.974243 812.463928,579.974243 821.072144,579.974243 
	C821.072144,565.996643 821.072144,552.215088 821.072144,538.026367 
	C827.890076,538.026367 834.395325,538.362915 840.853149,537.952515 
	C852.352722,537.221802 862.066162,532.660034 868.977295,523.113831 
	C874.886414,514.951721 875.709290,505.622009 874.709351,495.073578 
M1004.518738,513.946228 
	C988.910767,503.839539 974.498047,506.468597 960.757202,518.600830 
	C960.571594,515.462341 960.418457,512.872864 960.267273,510.316223 
	C951.578552,510.316223 943.193054,510.316223 934.869629,510.316223 
	C934.869629,545.664795 934.869629,580.693115 934.869629,615.603638 
	C943.496887,615.603638 951.747559,615.603638 960.366577,615.603638 
	C960.366577,600.400574 960.366577,585.523071 960.366577,570.216370 
	C961.175171,570.859131 961.624268,571.083496 961.886597,571.443848 
	C972.161194,585.557373 993.057861,584.120361 1003.655273,576.572388 
	C1023.401550,562.508057 1022.912781,528.119202 1004.518738,513.946228 
M542.471985,578.080078 
	C549.486267,581.682617 557.005737,582.425354 564.745239,582.152344 
	C590.188599,581.254639 606.480896,558.744507 599.393982,534.216309 
	C594.320435,516.656799 578.186646,506.600037 557.437683,508.063690 
	C540.891479,509.230865 526.552429,520.963745 523.189697,536.086853 
	C519.254211,553.785278 526.148621,569.266785 542.471985,578.080078 
M751.949280,508.337402 
	C747.959778,508.240234 743.956238,507.879608 739.983276,508.092133 
	C723.785339,508.958649 710.747192,519.677673 707.246460,534.788574 
	C703.205505,552.231689 709.495361,568.810608 723.578918,576.818298 
	C735.023132,583.325317 747.499268,583.005798 760.016113,581.284790 
	C766.991882,580.325745 773.558777,578.276184 778.627258,572.707092 
	C775.197693,567.298401 771.940674,562.161804 768.653259,556.977173 
	C760.630798,562.874268 751.981445,564.463745 742.752991,562.969604 
	C735.619812,561.814697 731.227417,556.904907 731.564270,550.577148 
	C748.132996,550.577148 764.727051,550.577148 781.255859,550.577148 
	C784.146912,530.200806 774.812134,511.764618 751.949280,508.337402 
M1090.515747,579.046204 
	C1093.776001,577.219299 1097.036255,575.392456 1100.601196,573.394958 
	C1096.904663,567.507141 1093.676270,562.364990 1090.326538,557.029785 
	C1082.217041,562.760193 1073.483032,564.562683 1064.091064,562.937439 
	C1057.461060,561.790161 1053.222046,557.088989 1053.029053,550.672363 
	C1069.616943,550.672363 1086.198486,550.672363 1102.702393,550.672363 
	C1106.268921,530.677246 1096.323364,513.643860 1078.364014,509.457428 
	C1072.787720,508.157593 1066.790405,507.853271 1061.053589,508.203033 
	C1043.488159,509.273926 1030.086792,521.951294 1028.094604,538.709961 
	C1025.714844,558.728394 1034.744141,574.364319 1052.463379,579.882080 
	C1064.850830,583.739502 1077.389771,583.078796 1090.515747,579.046204 
M1136.000000,542.500000 
	C1136.000000,560.656006 1135.973267,578.812134 1136.013916,596.968018 
	C1136.029175,603.785828 1140.270142,608.610107 1146.244995,608.822021 
	C1152.423828,609.041199 1157.202271,604.184937 1157.212158,597.197998 
	C1157.272339,554.889648 1157.282227,512.580994 1157.139038,470.272949 
	C1157.130615,467.799255 1156.190430,464.918518 1154.718994,462.947510 
	C1151.874023,459.136932 1147.649048,457.966797 1143.102661,459.673950 
	C1138.202026,461.514038 1135.971680,465.280029 1135.981323,470.541687 
	C1136.024780,494.194397 1136.000122,517.847229 1136.000000,542.500000 
M1200.065796,530.500000 
	C1200.065796,518.009827 1200.080078,505.519653 1200.048340,493.029541 
	C1200.044189,491.376190 1200.054688,489.655670 1199.628296,488.082886 
	C1198.275879,483.093414 1193.100464,479.753479 1188.170410,480.483124 
	C1182.551758,481.314667 1178.889038,485.545044 1178.877808,491.620880 
	C1178.827393,518.766052 1178.853760,545.911377 1178.853516,573.056641 
	C1178.853394,588.211365 1178.906860,603.366394 1178.825562,618.520630 
	C1178.800903,623.102539 1180.362427,626.648865 1184.470459,628.841003 
	C1191.957764,632.836609 1200.020752,627.520569 1200.040649,618.431396 
	C1200.103882,589.454346 1200.065186,560.477173 1200.065796,530.500000 
M916.840393,540.500061 
	C916.840393,530.406677 916.840393,520.313354 916.840393,510.327576 
	C907.771179,510.327576 899.359009,510.327576 891.134033,510.327576 
	C891.134033,533.740601 891.134033,556.820801 891.134033,579.794006 
	C899.826965,579.794006 908.209717,579.794006 916.840393,579.794006 
	C916.840393,566.778809 916.840393,554.139465 916.840393,540.500061 
M916.445007,471.144806 
	C910.264282,464.460693 902.285828,462.922485 895.383789,467.084137 
	C889.069824,470.891235 886.103760,478.746429 888.466919,485.727600 
	C890.585144,491.985321 895.097351,495.701874 901.520935,496.672852 
	C907.827087,497.626099 913.104065,495.164642 916.698303,489.999054 
	C920.799805,484.104248 920.778137,477.865448 916.445007,471.144806 
z"/>
<path fill="#FEFEFE" opacity="1.000000" stroke="none" 
	d="
M652.891602,508.909729 
	C658.487000,511.712311 663.672974,514.429932 668.804810,517.119263 
	C668.804810,499.903809 668.804810,481.429108 668.804810,462.736023 
	C677.801819,462.736023 686.221191,462.736023 694.821533,462.736023 
	C694.821533,501.869263 694.821533,540.762939 694.821533,579.912964 
	C686.407837,579.912964 678.153564,579.912964 669.391602,579.912964 
	C669.391602,576.919495 669.391602,573.861206 669.391602,570.264954 
	C668.422424,570.836182 667.987427,570.975281 667.719299,571.267456 
	C651.549805,588.889526 624.911255,584.981750 614.971130,563.230225 
	C608.865112,549.868835 609.256958,536.336914 616.892395,523.591187 
	C624.550049,510.808441 637.852417,505.526215 652.891602,508.909729 
M643.552490,559.128784 
	C651.079956,563.393860 659.253235,562.549805 664.545349,556.960815 
	C669.609802,551.612305 670.472900,542.673401 666.557861,536.117126 
	C662.860596,529.925476 655.126099,526.886597 647.960999,529.036499 
	C642.278015,530.741699 638.504639,534.650146 637.169312,540.377869 
	C635.510559,547.492981 636.959656,553.898560 643.552490,559.128784 
z"/>
<path fill="#FDFDFD" opacity="1.000000" stroke="none" 
	d="
M497.638184,496.227081 
	C486.344940,490.321686 474.787292,488.856537 462.960510,492.329620 
	C447.556030,496.853333 439.024231,511.434113 441.046021,528.782593 
	C442.878174,544.503784 455.289246,556.000793 471.809113,556.797485 
	C476.576385,557.027344 481.507629,556.631958 486.163147,555.609741 
	C490.648376,554.625000 494.874420,552.459595 499.636200,550.652893 
	C503.106689,557.421265 506.641876,564.315796 510.144531,571.146912 
	C495.807373,587.693848 453.378845,585.163696 431.804443,566.629517 
	C408.977356,547.019165 406.624237,509.948090 426.536713,486.417847 
	C449.999359,458.692413 491.274475,461.346130 510.188751,475.875702 
	C506.886780,482.451630 503.579926,489.116638 500.144592,495.714722 
	C499.893433,496.197144 498.711945,496.195221 497.638184,496.227081 
z"/>
<path fill="#FCFCFC" opacity="1.000000" stroke="none" 
	d="
M874.781006,495.517395 
	C875.709290,505.622009 874.886414,514.951721 868.977295,523.113831 
	C862.066162,532.660034 852.352722,537.221802 840.853149,537.952515 
	C834.395325,538.362915 827.890076,538.026367 821.072144,538.026367 
	C821.072144,552.215088 821.072144,565.996643 821.072144,579.974243 
	C812.463928,579.974243 804.191040,579.974243 795.605225,579.974243 
	C795.605225,542.509033 795.605225,505.162811 795.605225,467.157349 
	C797.642029,467.157349 799.571411,467.130157 801.499878,467.161652 
	C815.803345,467.395264 830.163391,466.929932 844.395020,468.068115 
	C860.924316,469.390015 871.004761,479.092224 874.781006,495.517395 
M823.660278,518.001099 
	C828.282410,517.643250 833.024475,517.815552 837.498413,516.802917 
	C844.181213,515.290405 847.849609,509.846680 847.927979,502.807892 
	C848.009155,495.511383 844.770081,490.450470 837.715332,488.824554 
	C832.382446,487.595520 826.755188,487.643890 820.998779,487.099091 
	C820.998779,497.213898 820.948059,506.194275 821.073486,515.172241 
	C821.086731,516.120544 822.135681,517.054321 823.660278,518.001099 
z"/>
<path fill="#FEFEFE" opacity="1.000000" stroke="none" 
	d="
M1004.828735,514.129028 
	C1022.912781,528.119202 1023.401550,562.508057 1003.655273,576.572388 
	C993.057861,584.120361 972.161194,585.557373 961.886597,571.443848 
	C961.624268,571.083496 961.175171,570.859131 960.366577,570.216370 
	C960.366577,585.523071 960.366577,600.400574 960.366577,615.603638 
	C951.747559,615.603638 943.496887,615.603638 934.869629,615.603638 
	C934.869629,580.693115 934.869629,545.664795 934.869629,510.316223 
	C943.193054,510.316223 951.578552,510.316223 960.267273,510.316223 
	C960.418457,512.872864 960.571594,515.462341 960.757202,518.600830 
	C974.498047,506.468597 988.910767,503.839539 1004.828735,514.129028 
M960.819885,547.781616 
	C962.269165,555.881348 967.018433,560.640503 974.787537,561.778381 
	C981.379272,562.743835 988.366699,559.064148 991.307068,553.079041 
	C994.546204,546.485901 993.330444,538.284729 988.360107,533.198792 
	C983.690979,528.421021 976.802979,527.044922 970.457581,529.622192 
	C963.858215,532.302673 960.553955,538.206482 960.819885,547.781616 
z"/>
<path fill="#FDFDFD" opacity="1.000000" stroke="none" 
	d="
M542.121094,577.945129 
	C526.148621,569.266785 519.254211,553.785278 523.189697,536.086853 
	C526.552429,520.963745 540.891479,509.230865 557.437683,508.063690 
	C578.186646,506.600037 594.320435,516.656799 599.393982,534.216309 
	C606.480896,558.744507 590.188599,581.254639 564.745239,582.152344 
	C557.005737,582.425354 549.486267,581.682617 542.121094,577.945129 
M549.874878,535.550354 
	C544.910889,544.324402 546.788147,554.714905 554.095093,558.909302 
	C560.708435,562.705566 569.243103,561.136597 573.357910,555.368103 
	C578.142456,548.660706 577.048523,537.650085 571.092651,532.568542 
	C565.039917,527.404358 556.603149,528.340271 549.874878,535.550354 
z"/>
<path fill="#FCFCFC" opacity="1.000000" stroke="none" 
	d="
M752.375305,508.459534 
	C774.812134,511.764618 784.146912,530.200806 781.255859,550.577148 
	C764.727051,550.577148 748.132996,550.577148 731.564270,550.577148 
	C731.227417,556.904907 735.619812,561.814697 742.752991,562.969604 
	C751.981445,564.463745 760.630798,562.874268 768.653259,556.977173 
	C771.940674,562.161804 775.197693,567.298401 778.627258,572.707092 
	C773.558777,578.276184 766.991882,580.325745 760.016113,581.284790 
	C747.499268,583.005798 735.023132,583.325317 723.578918,576.818298 
	C709.495361,568.810608 703.205505,552.231689 707.246460,534.788574 
	C710.747192,519.677673 723.785339,508.958649 739.983276,508.092133 
	C743.956238,507.879608 747.959778,508.240234 752.375305,508.459534 
M753.776855,528.768494 
	C749.153564,524.561279 743.858643,524.420593 738.475647,526.700867 
	C734.238037,528.495972 731.771790,531.851501 731.618652,536.758179 
	C740.202942,536.758179 748.584167,536.758179 758.007568,536.758179 
	C756.575134,533.869873 755.445068,531.591431 753.776855,528.768494 
z"/>
<path fill="#FCFCFC" opacity="1.000000" stroke="none" 
	d="
M1090.141602,579.163574 
	C1077.389771,583.078796 1064.850830,583.739502 1052.463379,579.882080 
	C1034.744141,574.364319 1025.714844,558.728394 1028.094604,538.709961 
	C1030.086792,521.951294 1043.488159,509.273926 1061.053589,508.203033 
	C1066.790405,507.853271 1072.787720,508.157593 1078.364014,509.457428 
	C1096.323364,513.643860 1106.268921,530.677246 1102.702393,550.672363 
	C1086.198486,550.672363 1069.616943,550.672363 1053.029053,550.672363 
	C1053.222046,557.088989 1057.461060,561.790161 1064.091064,562.937439 
	C1073.483032,564.562683 1082.217041,562.760193 1090.326538,557.029785 
	C1093.676270,562.364990 1096.904663,567.507141 1100.601196,573.394958 
	C1097.036255,575.392456 1093.776001,577.219299 1090.141602,579.163574 
M1068.050537,525.403198 
	C1058.500366,525.451172 1053.800781,529.121521 1053.446777,537.005066 
	C1061.067505,537.005066 1068.680176,537.010681 1076.292847,536.996826 
	C1077.103027,536.995361 1077.912964,536.879761 1078.729614,536.816589 
	C1077.879761,529.948425 1075.430176,527.202759 1068.050537,525.403198 
z"/>
<path fill="#19B4AB" opacity="1.000000" stroke="none" 
	d="
M1136.000000,542.000000 
	C1136.000122,517.847229 1136.024780,494.194397 1135.981323,470.541687 
	C1135.971680,465.280029 1138.202026,461.514038 1143.102661,459.673950 
	C1147.649048,457.966797 1151.874023,459.136932 1154.718994,462.947510 
	C1156.190430,464.918518 1157.130615,467.799255 1157.139038,470.272949 
	C1157.282227,512.580994 1157.272339,554.889648 1157.212158,597.197998 
	C1157.202271,604.184937 1152.423828,609.041199 1146.244995,608.822021 
	C1140.270142,608.610107 1136.029175,603.785828 1136.013916,596.968018 
	C1135.973267,578.812134 1136.000000,560.656006 1136.000000,542.000000 
z"/>
<path fill="#19B4AB" opacity="1.000000" stroke="none" 
	d="
M1200.065918,531.000000 
	C1200.065186,560.477173 1200.103882,589.454346 1200.040649,618.431396 
	C1200.020752,627.520569 1191.957764,632.836609 1184.470459,628.841003 
	C1180.362427,626.648865 1178.800903,623.102539 1178.825562,618.520630 
	C1178.906860,603.366394 1178.853394,588.211365 1178.853516,573.056641 
	C1178.853760,545.911377 1178.827393,518.766052 1178.877808,491.620880 
	C1178.889038,485.545044 1182.551758,481.314667 1188.170410,480.483124 
	C1193.100464,479.753479 1198.275879,483.093414 1199.628296,488.082886 
	C1200.054688,489.655670 1200.044189,491.376190 1200.048340,493.029541 
	C1200.080078,505.519653 1200.065796,518.009827 1200.065918,531.000000 
z"/>
<path fill="#FDFDFD" opacity="1.000000" stroke="none" 
	d="
M916.840393,541.000122 
	C916.840393,554.139465 916.840393,566.778809 916.840393,579.794006 
	C908.209717,579.794006 899.826965,579.794006 891.134033,579.794006 
	C891.134033,556.820801 891.134033,533.740601 891.134033,510.327576 
	C899.359009,510.327576 907.771179,510.327576 916.840393,510.327576 
	C916.840393,520.313354 916.840393,530.406677 916.840393,541.000122 
z"/>
<path fill="#7A2AE1" opacity="1.000000" stroke="none" 
	d="
M916.663086,471.441467 
	C920.778137,477.865448 920.799805,484.104248 916.698303,489.999054 
	C913.104065,495.164642 907.827087,497.626099 901.520935,496.672852 
	C895.097351,495.701874 890.585144,491.985321 888.466919,485.727600 
	C886.103760,478.746429 889.069824,470.891235 895.383789,467.084137 
	C902.285828,462.922485 910.264282,464.460693 916.663086,471.441467 
z"/>
<path fill="#222222" opacity="1.000000" stroke="none" 
	d="
M643.220703,558.955200 
	C636.959656,553.898560 635.510559,547.492981 637.169312,540.377869 
	C638.504639,534.650146 642.278015,530.741699 647.960999,529.036499 
	C655.126099,526.886597 662.860596,529.925476 666.557861,536.117126 
	C670.472900,542.673401 669.609802,551.612305 664.545349,556.960815 
	C659.253235,562.549805 651.079956,563.393860 643.220703,558.955200 
z"/>
<path fill="#222222" opacity="1.000000" stroke="none" 
	d="
M823.182190,517.997986 
	C822.135681,517.054321 821.086731,516.120544 821.073486,515.172241 
	C820.948059,506.194275 820.998779,497.213898 820.998779,487.099091 
	C826.755188,487.643890 832.382446,487.595520 837.715332,488.824554 
	C844.770081,490.450470 848.009155,495.511383 847.927979,502.807892 
	C847.849609,509.846680 844.181213,515.290405 837.498413,516.802917 
	C833.024475,517.815552 828.282410,517.643250 823.182190,517.997986 
z"/>
<path fill="#212121" opacity="1.000000" stroke="none" 
	d="
M960.776733,547.388916 
	C960.553955,538.206482 963.858215,532.302673 970.457581,529.622192 
	C976.802979,527.044922 983.690979,528.421021 988.360107,533.198792 
	C993.330444,538.284729 994.546204,546.485901 991.307068,553.079041 
	C988.366699,559.064148 981.379272,562.743835 974.787537,561.778381 
	C967.018433,560.640503 962.269165,555.881348 960.776733,547.388916 
z"/>
<path fill="#222222" opacity="1.000000" stroke="none" 
	d="
M550.048523,535.217041 
	C556.603149,528.340271 565.039917,527.404358 571.092651,532.568542 
	C577.048523,537.650085 578.142456,548.660706 573.357910,555.368103 
	C569.243103,561.136597 560.708435,562.705566 554.095093,558.909302 
	C546.788147,554.714905 544.910889,544.324402 550.048523,535.217041 
z"/>
<path fill="#242424" opacity="1.000000" stroke="none" 
	d="
M754.045959,529.040710 
	C755.445068,531.591431 756.575134,533.869873 758.007568,536.758179 
	C748.584167,536.758179 740.202942,536.758179 731.618652,536.758179 
	C731.771790,531.851501 734.238037,528.495972 738.475647,526.700867 
	C743.858643,524.420593 749.153564,524.561279 754.045959,529.040710 
z"/>
<path fill="#242424" opacity="1.000000" stroke="none" 
	d="
M1068.436035,525.498474 
	C1075.430176,527.202759 1077.879761,529.948425 1078.729614,536.816589 
	C1077.912964,536.879761 1077.103027,536.995361 1076.292847,536.996826 
	C1068.680176,537.010681 1061.067505,537.005066 1053.446777,537.005066 
	C1053.800781,529.121521 1058.500366,525.451172 1068.436035,525.498474 
z"/>
</svg>